{
  "asset": {
    "generator": "Khronos glTF Blender I/O v4.5.48",
    "version": "2.0"
  },
  "scene": 0,
  "scenes": [
    {
      "name": "Scene",
      "nodes": [
        8
      ]
    }
  ],
  "nodes": [
    {
      "mesh": 0,
      "name": "ball_holder_1",
      "rotation": [
        0,
        0,
        -0.16393285989761353,
        0.9864715337753296
      ],
      "scale": [
        0.16564463078975677,
        2.6503140926361084,
        0.16564464569091797
      ],
      "translation": [
        3.4608497619628906,
        -9.454497337341309,
        0
      ]
    },
    {
      "mesh": 1,
      "name": "ball_holder_1.001",
      "rotation": [
        -0.4403841197490692,
        0.7456955313682556,
        -0.08196648210287094,
        0.4932357370853424
      ],
      "scale": [
        0.16564464569091797,
        2.6503143310546875,
        0.16564464569091797
      ],
      "translation": [
        1.0030927658081055,
        -10.321310997009277,
        -1.498658299446106
      ]
    },
    {
      "mesh": 2,
      "name": "ball_holder_1.002",
      "rotation": [
        0.4403841495513916,
        -0.7456955313682556,
        -0.08196648210287094,
        0.4932357370853424
      ],
      "scale": [
        0.16564464569091797,
        2.6503143310546875,
        0.16564464569091797
      ],
      "translation": [
        0.9531218409538269,
        -10.340621948242188,
        1.619860291481018
      ]
    },
    {
      "mesh": 3,
      "name": "Dish",
      "rotation": [
        0,
        0,
        0.18334658443927765,
        0.9830484390258789
      ],
      "scale": [
        6.625784397125244,
        6.625784397125244,
        6.625784873962402
      ],
      "translation": [
        2.9570093154907227,
        -13.212804794311523,
        0
      ]
    },
    {
      "mesh": 4,
      "name": "DishBall",
      "scale": [
        0.8691521286964417,
        0.8691521286964417,
        0.8691521286964417
      ],
      "translation": [
        0,
        -4.467471122741699,
        0
      ]
    },
    {
      "mesh": 5,
      "name": "DishBase",
      "scale": [
        1.3251570463180542,
        1.3251570463180542,
        1.3251570463180542
      ],
      "translation": [
        0,
        -1.3251570463180542,
        0
      ]
    },
    {
      "mesh": 6,
      "name": "DishSupport",
      "rotation": [
        0,
        0,
        0.18334658443927765,
        0.9830484390258789
      ],
      "scale": [
        0.2766200304031372,
        1.005202054977417,
        0.2650313973426819
      ],
      "translation": [
        0.5868911147117615,
        -6.077024459838867,
        0
      ]
    },
    {
      "name": "Empty",
      "scale": [
        1.3234758377075195,
        1.3234758377075195,
        1.3234758377075195
      ],
      "translation": [
        0,
        -4.492092132568359,
        0
      ]
    },
    {
      "children": [
        0,
        1,
        2,
        3,
        4,
        5,
        6,
        7
      ],
      "name": "Empty.001",
      "rotation": [
        -1,
        0,
        0,
        4.371138828673793e-8
      ],
      "scale": [
        0.15092551708221436,
        0.15092551708221436,
        0.15092551708221436
      ]
    }
  ],
  "animations": [
    {
      "channels": [
        {
          "sampler": 0,
          "target": {
            "node": 7,
            "path": "translation"
          }
        },
        {
          "sampler": 1,
          "target": {
            "node": 7,
            "path": "rotation"
          }
        },
        {
          "sampler": 2,
          "target": {
            "node": 7,
            "path": "scale"
          }
        }
      ],
      "name": "EmptyAction",
      "samplers": [
        {
          "input": 26,
          "interpolation": "STEP",
          "output": 27
        },
        {
          "input": 28,
          "interpolation": "LINEAR",
          "output": 29
        },
        {
          "input": 26,
          "interpolation": "STEP",
          "output": 30
        }
      ]
    }
  ],
  "materials": [
    {
      "doubleSided": true,
      "name": "Material.002",
      "pbrMetallicRoughness": {
        "baseColorFactor": [
          0.3200269043445587,
          0.3200269043445587,
          0.3200269043445587,
          1
        ],
        "metallicFactor": 0,
        "roughnessFactor": 0.5
      }
    },
    {
      "doubleSided": true,
      "name": "Material.001",
      "pbrMetallicRoughness": {
        "baseColorFactor": [
          0.27736881375312805,
          0.21478568017482758,
          0.18998286128044128,
          1
        ],
        "metallicFactor": 0,
        "roughnessFactor": 0.5
      }
    },
    {
      "doubleSided": true,
      "name": "Material.003",
      "pbrMetallicRoughness": {
        "baseColorFactor": [
          0.3199999928474426,
          0.3199999928474426,
          0.3199999928474426,
          1
        ],
        "metallicFactor": 0,
        "roughnessFactor": 0.5
      }
    }
  ],
  "meshes": [
    {
      "name": "Cube.004",
      "primitives": [
        {
          "attributes": {
            "POSITION": 0,
            "NORMAL": 1,
            "TEXCOORD_0": 2
          },
          "indices": 3
        }
      ]
    },
    {
      "name": "Cube.008",
      "primitives": [
        {
          "attributes": {
            "POSITION": 4,
            "NORMAL": 5,
            "TEXCOORD_0": 6
          },
          "indices": 3
        }
      ]
    },
    {
      "name": "Cube.009",
      "primitives": [
        {
          "attributes": {
            "POSITION": 7,
            "NORMAL": 8,
            "TEXCOORD_0": 9
          },
          "indices": 3
        }
      ]
    },
    {
      "name": "Sphere",
      "primitives": [
        {
          "attributes": {
            "POSITION": 10,
            "NORMAL": 11,
            "TEXCOORD_0": 12
          },
          "indices": 13
        }
      ]
    },
    {
      "name": "Sphere.001",
      "primitives": [
        {
          "attributes": {
            "POSITION": 14,
            "NORMAL": 15,
            "TEXCOORD_0": 16
          },
          "indices": 17,
          "material": 0
        }
      ]
    },
    {
      "name": "Cube.002",
      "primitives": [
        {
          "attributes": {
            "POSITION": 18,
            "NORMAL": 19,
            "TEXCOORD_0": 20
          },
          "indices": 21,
          "material": 1
        }
      ]
    },
    {
      "name": "Cube.003",
      "primitives": [
        {
          "attributes": {
            "POSITION": 22,
            "NORMAL": 23,
            "TEXCOORD_0": 24
          },
          "indices": 25,
          "material": 2
        }
      ]
    }
  ],
  "accessors": [
    {
      "bufferView": 0,
      "componentType": 5126,
      "count": 24,
      "max": [
        0.517011284828186,
        1.0359752178192139,
        1
      ],
      "min": [
        -1.482988715171814,
        -0.9640247821807861,
        -1
      ],
      "type": "VEC3"
    },
    {
      "bufferView": 1,
      "componentType": 5126,
      "count": 24,
      "type": "VEC3"
    },
    {
      "bufferView": 2,
      "componentType": 5126,
      "count": 24,
      "type": "VEC2"
    },
    {
      "bufferView": 3,
      "componentType": 5123,
      "count": 36,
      "type": "SCALAR"
    },
    {
      "bufferView": 4,
      "componentType": 5126,
      "count": 24,
      "max": [
        0.517011284828186,
        1.0359752178192139,
        1
      ],
      "min": [
        -1.482988715171814,
        -0.9640247821807861,
        -1
      ],
      "type": "VEC3"
    },
    {
      "bufferView": 5,
      "componentType": 5126,
      "count": 24,
      "type": "VEC3"
    },
    {
      "bufferView": 6,
      "componentType": 5126,
      "count": 24,
      "type": "VEC2"
    },
    {
      "bufferView": 7,
      "componentType": 5126,
      "count": 24,
      "max": [
        0.517011284828186,
        1.0359752178192139,
        1
      ],
      "min": [
        -1.482988715171814,
        -0.9640247821807861,
        -1
      ],
      "type": "VEC3"
    },
    {
      "bufferView": 8,
      "componentType": 5126,
      "count": 24,
      "type": "VEC3"
    },
    {
      "bufferView": 9,
      "componentType": 5126,
      "count": 24,
      "type": "VEC2"
    },
    {
      "bufferView": 10,
      "componentType": 5126,
      "count": 1600,
      "max": [
        0.9238794445991516,
        1,
        0.9238792657852173
      ],
      "min": [
        -0.9238791465759277,
        0.36382755637168884,
        -0.9238790273666382
      ],
      "type": "VEC3"
    },
    {
      "bufferView": 11,
      "componentType": 5126,
      "count": 1600,
      "type": "VEC3"
    },
    {
      "bufferView": 12,
      "componentType": 5126,
      "count": 1600,
      "type": "VEC2"
    },
    {
      "bufferView": 13,
      "componentType": 5123,
      "count": 2304,
      "type": "SCALAR"
    },
    {
      "bufferView": 14,
      "componentType": 5126,
      "count": 240,
      "max": [
        0.9999999403953552,
        1,
        0.9999998807907104
      ],
      "min": [
        -0.9999998807907104,
        -1,
        -0.9999998807907104
      ],
      "type": "VEC3"
    },
    {
      "bufferView": 15,
      "componentType": 5126,
      "count": 240,
      "type": "VEC3"
    },
    {
      "bufferView": 16,
      "componentType": 5126,
      "count": 240,
      "type": "VEC2"
    },
    {
      "bufferView": 17,
      "componentType": 5123,
      "count": 336,
      "type": "SCALAR"
    },
    {
      "bufferView": 18,
      "componentType": 5126,
      "count": 32,
      "max": [
        1,
        1,
        1
      ],
      "min": [
        -1,
        -1.6999423503875732,
        -1
      ],
      "type": "VEC3"
    },
    {
      "bufferView": 19,
      "componentType": 5126,
      "count": 32,
      "type": "VEC3"
    },
    {
      "bufferView": 20,
      "componentType": 5126,
      "count": 32,
      "type": "VEC2"
    },
    {
      "bufferView": 21,
      "componentType": 5123,
      "count": 42,
      "type": "SCALAR"
    },
    {
      "bufferView": 22,
      "componentType": 5126,
      "count": 84,
      "max": [
        1,
        1,
        1.2160148620605469
      ],
      "min": [
        -2.4298882484436035,
        -6.417300701141357,
        -1.2160167694091797
      ],
      "type": "VEC3"
    },
    {
      "bufferView": 23,
      "componentType": 5126,
      "count": 84,
      "type": "VEC3"
    },
    {
      "bufferView": 24,
      "componentType": 5126,
      "count": 84,
      "type": "VEC2"
    },
    {
      "bufferView": 25,
      "componentType": 5123,
      "count": 96,
      "type": "SCALAR"
    },
    {
      "bufferView": 26,
      "componentType": 5126,
      "count": 2,
      "max": [
        7.5
      ],
      "min": [
        0
      ],
      "type": "SCALAR"
    },
    {
      "bufferView": 27,
      "componentType": 5126,
      "count": 2,
      "type": "VEC3"
    },
    {
      "bufferView": 28,
      "componentType": 5126,
      "count": 181,
      "max": [
        7.5
      ],
      "min": [
        0
      ],
      "type": "SCALAR"
    },
    {
      "bufferView": 29,
      "componentType": 5126,
      "count": 181,
      "type": "VEC4"
    },
    {
      "bufferView": 30,
      "componentType": 5126,
      "count": 2,
      "type": "VEC3"
    }
  ],
  "bufferViews": [
    {
      "buffer": 0,
      "byteLength": 288,
      "byteOffset": 0,
      "target": 34962
    },
    {
      "buffer": 0,
      "byteLength": 288,
      "byteOffset": 288,
      "target": 34962
    },
    {
      "buffer": 0,
      "byteLength": 192,
      "byteOffset": 576,
      "target": 34962
    },
    {
      "buffer": 0,
      "byteLength": 72,
      "byteOffset": 768,
      "target": 34963
    },
    {
      "buffer": 0,
      "byteLength": 288,
      "byteOffset": 840,
      "target": 34962
    },
    {
      "buffer": 0,
      "byteLength": 288,
      "byteOffset": 1128,
      "target": 34962
    },
    {
      "buffer": 0,
      "byteLength": 192,
      "byteOffset": 1416,
      "target": 34962
    },
    {
      "buffer": 0,
      "byteLength": 288,
      "byteOffset": 1608,
      "target": 34962
    },
    {
      "buffer": 0,
      "byteLength": 288,
      "byteOffset": 1896,
      "target": 34962
    },
    {
      "buffer": 0,
      "byteLength": 192,
      "byteOffset": 2184,
      "target": 34962
    },
    {
      "buffer": 0,
      "byteLength": 19200,
      "byteOffset": 2376,
      "target": 34962
    },
    {
      "buffer": 0,
      "byteLength": 19200,
      "byteOffset": 21576,
      "target": 34962
    },
    {
      "buffer": 0,
      "byteLength": 12800,
      "byteOffset": 40776,
      "target": 34962
    },
    {
      "buffer": 0,
      "byteLength": 4608,
      "byteOffset": 53576,
      "target": 34963
    },
    {
      "buffer": 0,
      "byteLength": 2880,
      "byteOffset": 58184,
      "target": 34962
    },
    {
      "buffer": 0,
      "byteLength": 2880,
      "byteOffset": 61064,
      "target": 34962
    },
    {
      "buffer": 0,
      "byteLength": 1920,
      "byteOffset": 63944,
      "target": 34962
    },
    {
      "buffer": 0,
      "byteLength": 672,
      "byteOffset": 65864,
      "target": 34963
    },
    {
      "buffer": 0,
      "byteLength": 384,
      "byteOffset": 66536,
      "target": 34962
    },
    {
      "buffer": 0,
      "byteLength": 384,
      "byteOffset": 66920,
      "target": 34962
    },
    {
      "buffer": 0,
      "byteLength": 256,
      "byteOffset": 67304,
      "target": 34962
    },
    {
      "buffer": 0,
      "byteLength": 84,
      "byteOffset": 67560,
      "target": 34963
    },
    {
      "buffer": 0,
      "byteLength": 1008,
      "byteOffset": 67644,
      "target": 34962
    },
    {
      "buffer": 0,
      "byteLength": 1008,
      "byteOffset": 68652,
      "target": 34962
    },
    {
      "buffer": 0,
      "byteLength": 672,
      "byteOffset": 69660,
      "target": 34962
    },
    {
      "buffer": 0,
      "byteLength": 192,
      "byteOffset": 70332,
      "target": 34963
    },
    {
      "buffer": 0,
      "byteLength": 8,
      "byteOffset": 70524
    },
    {
      "buffer": 0,
      "byteLength": 24,
      "byteOffset": 70532
    },
    {
      "buffer": 0,
      "byteLength": 724,
      "byteOffset": 70556
    },
    {
      "buffer": 0,
      "byteLength": 2896,
      "byteOffset": 71280
    },
    {
      "buffer": 0,
      "byteLength": 24,
      "byteOffset": 74176
    }
  ],
  "buffers": [
    {
      "uri": "dish_data.bin",
      "byteLength": 74200
    }
  ]
}